<svg width="106" height="19" viewBox="0 0 106 19" fill="none" xmlns="http://www.w3.org/2000/svg">
<path d="M3.5 3.3V12.7H8.8V3.3H3.5ZM6.28 15.1H3.02L0.7 13.76V2.24L3.02 0.899999H9.28L11.6 2.24V13.76L9.28 15.1L11.54 19H8.48L6.28 15.1Z" fill="#9147C9"/>
<path d="M22.4969 10.9H25.2969V13.76L22.9769 15.1H17.3169L14.9969 13.76V2.24L17.3169 0.899999H22.9769L25.2969 2.24V5.1H22.4969V3.3H17.7969V12.7H22.4969V10.9Z" fill="#50D1CD"/>
<path d="M29.073 11.22V15H27.873V6.6H32.781V7.68H29.073V10.14H32.061V11.22H29.073ZM34.1045 14.256V9H35.2685V14.016H38.0405V9H39.2045V15.06H38.3285L38.0405 14.568L37.1885 15.06H35.4965L34.1045 14.256ZM46.2241 9.744V15H45.0601V9.984H42.2881V15H41.1241V8.94H42.0001L42.2881 9.432L43.1401 8.94H44.8321L46.2241 9.744ZM49.5356 8.94H51.3476L52.1996 9.432V6.24H53.3636V15.06H52.4876L52.1996 14.568L51.3476 15.06H49.5356L48.1436 14.256V9.744L49.5356 8.94ZM52.1996 14.016V9.984H49.3076V14.016H52.1996ZM56.2043 12.54V14.016H58.6163V12.54H56.2043ZM56.4323 15.06L55.0403 14.256V12.3L56.4323 11.496H58.6163V10.044H55.6403V9H58.3883L59.7803 9.804V15.06H59.4683L58.6163 14.568L57.7643 15.06H56.4323ZM69.7782 9.744V15H68.6142V9.984H66.3222V15H65.1582V9.984H62.8662V15H61.7022V8.94H62.5782L62.8662 9.432L63.7182 8.94H64.9302L66.0462 9.588L67.1742 8.94H68.3862L69.7782 9.744ZM76.4383 13.956V15H73.0903L71.6983 14.196V9.744L73.0903 8.94H75.0463L76.4383 9.744V12.408H72.8623V13.956H76.4383ZM72.8623 9.984V11.364H75.2743V9.984H72.8623ZM83.4545 9.744V15H82.2905V9.984H79.5185V15H78.3545V8.94H79.2305L79.5185 9.432L80.3705 8.94H82.0625L83.4545 9.744ZM84.8941 10.044V9H85.9981V7.992L87.1621 7.32V9H88.6021V10.044H87.1621V13.956H88.6021V15H87.3901L85.9981 14.196V10.044H84.8941ZM91.2082 12.54V14.016H93.6202V12.54H91.2082ZM91.4362 15.06L90.0442 14.256V12.3L91.4362 11.496H93.6202V10.044H90.6442V9H93.3922L94.7842 9.804V15.06H94.4722L93.6202 14.568L92.7682 15.06H91.4362ZM98.0981 15L96.7061 14.196V6.24H97.8701V13.956H99.3101V15H98.0981ZM105.027 12.24V14.196L103.635 15H100.515V13.956H103.863V12.48H101.907L100.515 11.676V9.804L101.907 9H104.907V10.044H101.679V11.436H103.635L105.027 12.24Z" fill="white"/>
</svg>
